<?xml version="1.0" encoding="utf-8"?>
<!-- Generator: Adobe Illustrator 17.0.0, SVG Export Plug-In . SVG Version: 6.00 Build 0)  -->
<!DOCTYPE svg PUBLIC "-//W3C//DTD SVG 1.1//EN" "http://www.w3.org/Graphics/SVG/1.1/DTD/svg11.dtd">
<svg version="1.1" id="Layer_1" xmlns="http://www.w3.org/2000/svg" xmlns:xlink="http://www.w3.org/1999/xlink" x="0px" y="0px"
	 width="32px" height="32px" viewBox="0 0 32 32" enable-background="new 0 0 32 32" xml:space="preserve">
<ellipse fill="none" stroke="#FFFFFF" stroke-miterlimit="10" cx="-161.833" cy="175.667" rx="16.583" ry="16.75"/>
<path fill="none" stroke="#FFFFFF" stroke-miterlimit="10" d="M2133.685,685.347c-1.79,28.45-0.42-19.07-0.42-19.07
	L2133.685,685.347z"/>
<path fill="none" stroke="#FFFFFF" stroke-miterlimit="10" d="M1945.405,737.737c-2.01-0.76-3.95-1.6-5.78-2.46
	c-0.03-0.01-0.06-0.02-0.08-0.04c-7.41-3.49-12.94-7.33-12.94-7.33"/>
<path fill="none" stroke="#FFFFFF" stroke-miterlimit="10" d="M2196.765,729.447c-5.58,3.6-10.66,6.59-15.28,9.04l-0.01,0.01
	c-12.27,6.52-21.31,9.31-27.98,9.86"/>
<g>
	<g>
		<path d="M1926.333,730.167c1.424,0.044,2.787,0.737,3.899,1.601c1.075,0.836,2.483,1.053,3.536,0c0.873-0.873,1.078-2.698,0-3.536
			c-2.207-1.716-4.581-2.978-7.434-3.066C1923.107,725.067,1923.117,730.068,1926.333,730.167L1926.333,730.167z"/>
	</g>
</g>
<g>
	<g>
		<path d="M1943.928,735.841c-3.454-2.383-7.12-4.429-10.667-6.667c-2.736-1.726-5.242,2.602-2.524,4.317
			c3.547,2.238,7.213,4.284,10.667,6.667C1944.067,741.995,1946.563,737.659,1943.928,735.841L1943.928,735.841z"/>
	</g>
</g>
<g>
	<g>
		<path d="M1945.333,740.167c3.224,0,3.224-5,0-5C1942.109,735.167,1942.109,740.167,1945.333,740.167L1945.333,740.167z"/>
	</g>
</g>
<g>
	<g>
		<path d="M1436,293.5c3.224,0,3.224-5,0-5S1432.776,293.5,1436,293.5L1436,293.5z"/>
	</g>
</g>
<polygon points="0,0 32,0 32.5,32 0,32 "/>
<path d="M-3.875-14.75"/>
<g>
	<path d="M24.348,18.682c0,0-0.486,3.724-5.852,4.126c0,0,1.024,0.673,0.878,3.453c-0.02,0.372-0.035,0.644-0.047,0.837
		l-0.018-0.837c0,0-0.06,2.086,0.018,0.837l0.047,2.133c0,0,0,0.701,0.822,0.632c-1.24,0.37-2.553,0.569-3.912,0.569
		c-1.849,0-3.612-0.368-5.222-1.035c0.719,0.271,1.613,0.293,1.369-1.441l0.041-1.712c0,0-3.64,1.053-4.708-1.814
		c0,0-0.688-1.434-1.463-1.814H6.254c0,0-1.295-0.926,0.472-0.772c0,0,1.053,0.274,1.558,1.021c0,0,1.212,2.798,4.189,1.514
		c0,0,0.145-1.295,0.87-1.865c0,0-3.764-0.208-5.081-2.502c-0.243-0.423-0.397-0.692-0.487-0.848
		c-0.282-0.837-1.286-4.37,0.919-6.831c0,0-0.614-1.756,0.117-3.629c0,0,0.995-0.351,3.746,1.375c0,0,3.54-0.966,6.818,0.029
		c0,0,1.961-1.492,3.863-1.434c0,0,0.702,2.4,0,3.658C23.237,12.333,25.548,14.322,24.348,18.682z"/>
	<path fill="#6FCCDD" d="M29.977,16.577c0,5.805-3.552,10.774-8.586,12.823l0,0c-0.4,0.163-0.81,0.308-1.228,0.433
		c-0.822,0.069-0.822-0.632-0.822-0.632l-0.047-2.133c0.012-0.193,0.028-0.465,0.047-0.837c0.146-2.78-0.878-3.453-0.878-3.453
		c5.366-0.402,5.852-4.126,5.852-4.126c1.2-4.36-1.112-6.35-1.112-6.35c0.702-1.258,0-3.658,0-3.658
		c-1.902-0.058-3.863,1.434-3.863,1.434c-3.277-0.995-6.818-0.029-6.818-0.029C9.771,8.322,8.776,8.673,8.776,8.673
		c-0.731,1.873-0.117,3.629-0.117,3.629c-2.205,2.462-1.201,5.995-0.919,6.831c0.09,0.156,0.244,0.425,0.487,0.848
		c1.317,2.293,5.081,2.502,5.081,2.502c-0.724,0.571-0.87,1.865-0.87,1.865c-2.977,1.284-4.189-1.514-4.189-1.514
		c-0.505-0.746-1.558-1.021-1.558-1.021C4.925,21.66,6.22,22.586,6.22,22.586h0.048c0.775,0.38,1.463,1.814,1.463,1.814
		c1.068,2.868,4.708,1.814,4.708,1.814l-0.041,1.712c0.244,1.734-0.65,1.712-1.369,1.441c-0.085-0.035-0.169-0.071-0.254-0.108
		c-0.001,0-0.003-0.001-0.004-0.002c-4.855-2.131-8.248-7.006-8.248-12.68c0-7.636,6.146-13.826,13.727-13.826
		C23.831,2.751,29.977,8.941,29.977,16.577z"/>
	<path fill="none" stroke="#FFFFFF" stroke-miterlimit="10" d="M16.639,20.357c0,0-0.284-0.498-0.448-0.786
		c-0.063-0.111-0.108-0.19-0.113-0.2"/>
	<path fill="none" stroke="#FFFFFF" stroke-miterlimit="10" d="M16.078,19.371C16.078,19.371,16.078,19.371,16.078,19.371
		c0.003,0.005,0.014,0.022,0.033,0.056c0.017,0.029,0.041,0.071,0.073,0.126"/>
	<path fill="none" stroke="#FFFFFF" stroke-miterlimit="10" d="M16.185,19.553c0.002,0.006,0.004,0.012,0.007,0.018
		c0.036,0.107,0.059,0.165,0.059,0.165"/>
	<g>
		<g>
			<path d="M13.814,20.394c0.245,0.534,0.538,1.042,0.805,1.566c0.618,1.214,2.297,1.555,3.42,0.897
				c1.226-0.718,1.515-2.206,0.897-3.42c-0.266-0.523-0.56-1.032-0.805-1.566c-0.568-1.239-2.333-1.534-3.42-0.897
				C13.45,17.712,13.245,19.156,13.814,20.394L13.814,20.394z"/>
		</g>
	</g>
</g>
</svg>
