<?xml version="1.0" encoding="utf-8"?>
<!-- Generator: Adobe Illustrator 17.0.0, SVG Export Plug-In . SVG Version: 6.00 Build 0)  -->
<!DOCTYPE svg PUBLIC "-//W3C//DTD SVG 1.1//EN" "http://www.w3.org/Graphics/SVG/1.1/DTD/svg11.dtd">
<svg version="1.1" id="Layer_1" xmlns="http://www.w3.org/2000/svg" xmlns:xlink="http://www.w3.org/1999/xlink" x="0px" y="0px"
	 width="38px" height="38px" viewBox="0 0 38 38" enable-background="new 0 0 38 38" xml:space="preserve">
<polygon fill="#010101" points="0,0.045 38.045,0.045 38.639,38 0,38 "/>
<path fill="#010101" d="M-0.875-13.75"/>
<g>
	<path fill="#010101" d="M27.348,19.682c0,0-0.486,3.724-5.852,4.126c0,0,1.024,0.673,0.878,3.453
		c-0.02,0.372-0.035,0.644-0.047,0.837l-0.018-0.837c0,0-0.06,2.086,0.018,0.837l0.047,2.133c0,0,0,0.701,0.822,0.632
		c-1.24,0.37-2.553,0.569-3.912,0.569c-1.849,0-3.612-0.368-5.222-1.035c0.719,0.271,1.613,0.293,1.369-1.441l0.041-1.712
		c0,0-3.64,1.053-4.708-1.814c0,0-0.688-1.434-1.463-1.814H9.254c0,0-1.295-0.926,0.472-0.772c0,0,1.053,0.274,1.558,1.021
		c0,0,1.212,2.798,4.189,1.514c0,0,0.145-1.295,0.87-1.865c0,0-3.764-0.208-5.081-2.502c-0.243-0.423-0.397-0.692-0.487-0.848
		c-0.282-0.837-1.286-4.37,0.919-6.831c0,0-0.614-1.756,0.117-3.629c0,0,0.995-0.351,3.746,1.375c0,0,3.54-0.966,6.818,0.029
		c0,0,1.961-1.492,3.863-1.434c0,0,0.702,2.4,0,3.658C26.237,13.333,28.548,15.322,27.348,19.682z"/>
	<path fill="#70CDDD" d="M32.977,17.577c0,5.805-3.552,10.774-8.586,12.823l0,0c-0.4,0.163-0.81,0.308-1.228,0.433
		c-0.822,0.069-0.822-0.632-0.822-0.632l-0.047-2.133c0.012-0.193,0.028-0.465,0.047-0.837c0.146-2.78-0.878-3.453-0.878-3.453
		c5.366-0.402,5.852-4.126,5.852-4.126c1.2-4.36-1.112-6.35-1.112-6.35c0.702-1.258,0-3.658,0-3.658
		c-1.902-0.058-3.863,1.434-3.863,1.434c-3.277-0.995-6.818-0.029-6.818-0.029c-2.751-1.727-3.746-1.376-3.746-1.376
		c-0.731,1.873-0.117,3.629-0.117,3.629c-2.205,2.462-1.201,5.995-0.919,6.831c0.09,0.156,0.244,0.425,0.487,0.848
		c1.317,2.293,5.081,2.502,5.081,2.502c-0.724,0.571-0.87,1.865-0.87,1.865c-2.977,1.284-4.189-1.514-4.189-1.514
		c-0.505-0.746-1.558-1.021-1.558-1.021C7.925,22.66,9.22,23.586,9.22,23.586h0.048c0.775,0.38,1.463,1.814,1.463,1.814
		c1.068,2.868,4.708,1.814,4.708,1.814l-0.041,1.712c0.244,1.734-0.65,1.712-1.369,1.441c-0.085-0.035-0.169-0.071-0.254-0.108
		c-0.001,0-0.003-0.001-0.004-0.002c-4.855-2.131-8.248-7.006-8.248-12.68c0-7.636,6.146-13.826,13.727-13.826
		C26.831,3.751,32.977,9.941,32.977,17.577z"/>
	<path fill="none" stroke="#FFFFFF" stroke-miterlimit="10" d="M19.639,21.357c0,0-0.284-0.498-0.448-0.786
		c-0.063-0.111-0.108-0.19-0.113-0.2"/>
	<path fill="none" stroke="#FFFFFF" stroke-miterlimit="10" d="M19.078,20.371L19.078,20.371c0.003,0.005,0.014,0.022,0.033,0.056
		c0.017,0.029,0.041,0.071,0.073,0.126"/>
	<path fill="none" stroke="#FFFFFF" stroke-miterlimit="10" d="M19.185,20.553c0.002,0.006,0.004,0.012,0.007,0.018
		c0.036,0.107,0.059,0.165,0.059,0.165"/>
	<g>
		<g>
			<path fill="#010101" d="M16.814,21.394c0.245,0.534,0.538,1.042,0.805,1.566c0.618,1.214,2.297,1.555,3.42,0.897
				c1.226-0.718,1.515-2.206,0.897-3.42c-0.266-0.523-0.56-1.032-0.805-1.566c-0.568-1.239-2.333-1.534-3.42-0.897
				C16.45,18.712,16.245,20.156,16.814,21.394L16.814,21.394z"/>
		</g>
	</g>
</g>
</svg>
