<?xml version="1.0" encoding="utf-8"?>
<!-- Generator: Adobe Illustrator 17.0.0, SVG Export Plug-In . SVG Version: 6.00 Build 0)  -->
<!DOCTYPE svg PUBLIC "-//W3C//DTD SVG 1.1//EN" "http://www.w3.org/Graphics/SVG/1.1/DTD/svg11.dtd">
<svg version="1.1" id="Layer_1" xmlns="http://www.w3.org/2000/svg" xmlns:xlink="http://www.w3.org/1999/xlink" x="0px" y="0px"
	 width="32px" height="32px" viewBox="0 0 32 32" enable-background="new 0 0 32 32" xml:space="preserve">
<polygon points="0,0 32.5,0 32,32 0,32 "/>
<g>
	<path fill="#6FCCDD" d="M4.908,29.464h22.726c0,0,1.632-0.367,2.081-2.162V4.698c0,0-0.245-1.469-2.04-2.162H4.908
		c0,0-1.346,0.245-2.122,1.958v22.991C2.786,27.485,3.194,28.934,4.908,29.464z"/>
	<rect x="6.643" y="13.001" width="4.08" height="12.199"/>
	<ellipse cx="8.684" cy="8.952" rx="2.466" ry="2.479"/>
	<path d="M14.271,25.263h4.009v-7.609c0,0,2.02-3.397,4.07,0v7.609h4.1V16.92c0,0-0.704-3.335-3.274-3.856s-4.039,0.673-4.865,1.683
		l-0.031-1.683h-4.009V25.263z"/>
</g>
</svg>
