<?xml version="1.0" encoding="utf-8"?>
<!-- Generator: Adobe Illustrator 17.0.0, SVG Export Plug-In . SVG Version: 6.00 Build 0)  -->
<!DOCTYPE svg PUBLIC "-//W3C//DTD SVG 1.1//EN" "http://www.w3.org/Graphics/SVG/1.1/DTD/svg11.dtd">
<svg version="1.1" id="Layer_1" xmlns="http://www.w3.org/2000/svg" xmlns:xlink="http://www.w3.org/1999/xlink" x="0px" y="0px"
	 width="38px" height="38px" viewBox="0 0 38 38" enable-background="new 0 0 38 38" xml:space="preserve">
<polygon fill="#010101" points="0,0.05 38.775,0.05 38.179,37.95 0,37.95 "/>
<g>
	<path fill="#70CDDD" d="M8.59,32.19h22.726c0,0,1.632-0.367,2.081-2.162V7.424c0,0-0.245-1.469-2.04-2.162H8.59
		c0,0-1.346,0.245-2.122,1.958v22.991C6.468,30.211,6.876,31.66,8.59,32.19z"/>
	<rect x="10.325" y="15.727" fill="#010101" width="4.08" height="12.199"/>
	<ellipse fill="#010101" cx="12.366" cy="11.678" rx="2.466" ry="2.479"/>
	<path fill="#010101" d="M17.953,27.989h4.009V20.38c0,0,2.02-3.397,4.07,0v7.609h4.1v-8.343c0,0-0.704-3.335-3.274-3.856
		c-2.57-0.521-4.039,0.673-4.865,1.683l-0.031-1.683h-4.009C17.953,15.79,17.953,27.989,17.953,27.989z"/>
</g>
</svg>
