<?xml version="1.0" encoding="utf-8"?>
<!-- Generator: Adobe Illustrator 17.0.0, SVG Export Plug-In . SVG Version: 6.00 Build 0)  -->
<!DOCTYPE svg PUBLIC "-//W3C//DTD SVG 1.1//EN" "http://www.w3.org/Graphics/SVG/1.1/DTD/svg11.dtd">
<svg version="1.1" id="Layer_1" xmlns="http://www.w3.org/2000/svg" xmlns:xlink="http://www.w3.org/1999/xlink" x="0px" y="0px"
	 width="40px" height="40px" viewBox="0 0 40 40" enable-background="new 0 0 40 40" xml:space="preserve">
<rect width="40" height="40"/>
<path fill="#FFFFFF" stroke="#000000" stroke-miterlimit="10" d="M36.958,10.333c0,1.105-0.653,2-1.458,2h-31
	c-0.805,0-1.458-0.895-1.458-2l0,0c0-1.105,0.653-2,1.458-2h31C36.305,8.333,36.958,9.229,36.958,10.333L36.958,10.333z"/>
<path fill="#FFFFFF" stroke="#000000" stroke-miterlimit="10" d="M36.958,19.833C36.958,21.03,36.305,22,35.5,22h-31
	c-0.805,0-1.458-0.97-1.458-2.167l0,0c0-1.197,0.653-2.167,1.458-2.167h31C36.305,17.667,36.958,18.637,36.958,19.833L36.958,19.833
	z"/>
<path fill="#FFFFFF" stroke="#000000" stroke-miterlimit="10" d="M36.958,30.292c0,1.174-0.653,2.125-1.458,2.125h-31
	c-0.805,0-1.458-0.951-1.458-2.125l0,0c0-1.174,0.653-2.125,1.458-2.125h31C36.305,28.167,36.958,29.118,36.958,30.292
	L36.958,30.292z"/>
</svg>
